<?xml version="1.0" encoding="utf-8"?>
<!-- Generator: Adobe Illustrator 18.1.0, SVG Export Plug-In . SVG Version: 6.00 Build 0)  -->
<svg version="1.1" id="Layer_1" xmlns="http://www.w3.org/2000/svg" xmlns:xlink="http://www.w3.org/1999/xlink" x="0px" y="0px"
	 viewBox="0 0 40.7 42.1" enable-background="new 0 0 40.7 42.1" xml:space="preserve">
<path id="f_2_" fill="#FFFFFF" d="M28.4,37.2V24.7h4.2l0.6-4.9h-4.8v-3.1c0-1.4,0.4-2.4,2.4-2.4l2.6,0V10c-0.4-0.1-2-0.2-3.8-0.2
	c-3.7,0-6.3,2.3-6.3,6.4v3.6h-4.2v4.9h4.2v12.5H28.4z"/>
<g>
	<path fill="#383838" d="M20.7,24.6l-3.8-3.4l-11,9.4c0.4,0.4,0.9,0.6,1.5,0.6H34c0.6,0,1.1-0.2,1.5-0.6l-11-9.4L20.7,24.6z
		 M20.7,24.6"/>
	<path fill="#383838" d="M35.5,9.8c-0.4-0.4-0.9-0.6-1.5-0.6H7.5c-0.6,0-1.1,0.2-1.5,0.6l14.8,12.7L35.5,9.8z M35.5,9.8"/>
	<path fill="#383838" d="M5.2,11.1v18.4l10.7-9.1L5.2,11.1z M5.2,11.1"/>
	<path fill="#383838" d="M25.5,20.4l10.7,9.1V11.1L25.5,20.4z M25.5,20.4"/>
</g>
</svg>
