<?xml version="1.0" encoding="utf-8"?>
<!-- Generator: Adobe Illustrator 18.1.0, SVG Export Plug-In . SVG Version: 6.00 Build 0)  -->
<svg version="1.1" id="Layer_1" xmlns="http://www.w3.org/2000/svg" xmlns:xlink="http://www.w3.org/1999/xlink" x="0px" y="0px"
	 viewBox="0 0 40.7 42.1" enable-background="new 0 0 40.7 42.1" xml:space="preserve">
<path id="Blue_1_" fill="#3D5A99" d="M34.6,37.2c1,0,1.8-0.8,1.8-1.8V6.7c0-1-0.8-1.8-1.8-1.8H5.9c-1,0-1.8,0.8-1.8,1.8v28.7
	c0,1,0.8,1.8,1.8,1.8H34.6z"/>
<path id="f" fill="#FFFFFF" d="M26.4,37.2V24.7h4.2l0.6-4.9h-4.8v-3.1c0-1.4,0.4-2.4,2.4-2.4l2.6,0V10c-0.4-0.1-2-0.2-3.8-0.2
	c-3.7,0-6.3,2.3-6.3,6.4v3.6h-4.2v4.9h4.2v12.5H26.4z"/>
</svg>
