<?xml version="1.0" encoding="utf-8"?>
<!-- Generator: Adobe Illustrator 18.1.0, SVG Export Plug-In . SVG Version: 6.00 Build 0)  -->
<svg version="1.1" id="Layer_1" xmlns="http://www.w3.org/2000/svg" xmlns:xlink="http://www.w3.org/1999/xlink" x="0px" y="0px"
	 viewBox="0 0 179 262" enable-background="new 0 0 179 262" xml:space="preserve">
<g>
	<g>
		<path fill="#DF2227" d="M89.5,80.8c21,0,37.9-17,37.9-37.9S110.5,5,89.5,5S51.6,22,51.6,42.9S68.6,80.8,89.5,80.8"/>
	</g>
	<polygon fill="#2AABE3" points="12.1,120.4 167,120.4 89.5,42.9 	"/>
	<polygon fill="#FFFFFF" points="80.5,70.1 89.5,79.2 98.6,70.1 107.6,79.2 116.7,70.1 89.5,42.9 62.3,70.1 71.4,79.2 	"/>
	<g>
		<path fill="#1E1D1B" d="M25.6,168c-1,0-1.8-0.5-1.8-1.8c0-1.3,0.9-1.8,1.8-1.8h7.2v7.2c0,3.6-2.4,5.8-5.9,5.8h-6.3
			c-1.7,0-2.9-0.3-4.2-1.5c-1.5-1.3-1.7-2.7-1.7-4.5v-9.2c0-2.4,0.5-3.6,1.9-5.4l4.3-5.5c1.5-1.9,2.8-2.5,5.1-2.5H31
			c1,0,1.8,0.5,1.8,1.8c0,1.3-0.9,1.8-1.8,1.8h-4.4c-2,0-1.9,0-3.1,1.5l-4,5.1c-1.1,1.4-1.1,3-1.1,4.8v7.2c0,2,0.4,2.6,2.5,2.6h5.8
			c1.3,0,2.4-0.3,2.4-1.9V168H25.6z"/>
		<path fill="#1E1D1B" d="M59.4,175.5c0,1.2-0.5,1.8-1.8,1.8c-1.3,0-1.8-0.7-1.8-1.8v-11.8l-7.2-9.4v-3.7c0-1.2,0.5-1.8,1.8-1.8
			s1.8,0.7,1.8,1.8v2.5l5.4,7l5.4-7v-2.5c0-1.2,0.5-1.8,1.8-1.8c1.3,0,1.8,0.7,1.8,1.8v3.7l-7.2,9.4V175.5z"/>
		<path fill="#1E1D1B" d="M99.5,159.1c0.7,1.4,1,2.5,1,4.1c0,1.8-0.5,2.9-1.2,4.4l-3.4,6.8c-0.9,1.8-2.4,3.1-4.5,3.1
			s-3.6-1.3-4.5-3.1l-3.4-6.8c-0.7-1.5-1.2-2.6-1.2-4.4c0-1.6,0.3-2.6,1-4.1l3.7-7.3c0.9-1.7,2.4-3,4.4-3c2.1,0,3.6,1.3,4.4,3
			L99.5,159.1z M92.7,153.5c-0.3-0.6-0.5-1.1-1.2-1.1s-1,0.5-1.3,1.1l-3.3,6.6c-0.6,1.1-0.8,1.8-0.8,3c0,1,0.2,1.6,0.6,2.4l3.5,7
			c0.3,0.5,0.5,1.1,1.3,1.1s1-0.6,1.2-1.1l3.5-7c0.4-0.8,0.6-1.5,0.6-2.4c0-1.2-0.3-1.9-0.8-3L92.7,153.5z"/>
		<path fill="#1E1D1B" d="M134.3,151.1l-13.2,22.5h11.4c1,0,1.8,0.5,1.8,1.8c0,1.3-0.9,1.8-1.8,1.8h-16.3V175l13.2-22.6H118
			c-1,0-1.8-0.5-1.8-1.8c0-1.3,0.9-1.8,1.8-1.8h16.3V151.1z"/>
		<path fill="#1E1D1B" d="M157.2,150.6c0.3-1,0.7-1.9,1.9-1.9c1.2,0,1.7,0.9,1.9,1.9l7.1,24.9c0.3,0.9-0.7,1.8-1.8,1.8
			c-1.1,0-1.7-1-2-1.8l-1.4-4.4h-7.8l-1.4,4.4c-0.3,0.9-0.8,1.8-2,1.8c-1,0-2-1-1.8-1.8L157.2,150.6z M159.1,157.5L159.1,157.5
			l-2.9,10h5.8L159.1,157.5z"/>
		<path fill="#1E1D1B" d="M18.4,212.7v10.6c0,1.2-0.5,1.8-1.8,1.8s-1.8-0.7-1.8-1.8v-24.9c0-1.2,0.5-1.8,1.8-1.8s1.8,0.7,1.8,1.8
			V209h10.8v-10.6c0-1.2,0.5-1.8,1.8-1.8c1.3,0,1.8,0.7,1.8,1.8v24.9c0,1.2-0.5,1.8-1.8,1.8c-1.3,0-1.8-0.7-1.8-1.8v-10.6H18.4z"/>
		<path fill="#1E1D1B" d="M65.7,206.9c0.7,1.4,1,2.5,1,4.1c0,1.8-0.5,2.9-1.2,4.4l-3.4,6.8c-0.9,1.8-2.4,3.1-4.5,3.1
			c-2.1,0-3.6-1.3-4.5-3.1l-3.4-6.8c-0.7-1.5-1.2-2.6-1.2-4.4c0-1.6,0.3-2.6,1-4.1l3.7-7.3c0.9-1.7,2.4-3,4.4-3c2.1,0,3.6,1.3,4.4,3
			L65.7,206.9z M58.9,201.3c-0.3-0.6-0.5-1.1-1.2-1.1c-0.8,0-1,0.5-1.3,1.1L53,208c-0.6,1.1-0.8,1.8-0.8,3c0,1,0.2,1.6,0.6,2.4
			l3.5,7c0.3,0.5,0.5,1.1,1.3,1.1c0.7,0,1-0.6,1.2-1.1l3.5-7c0.4-0.8,0.6-1.5,0.6-2.4c0-1.2-0.3-1.9-0.8-3L58.9,201.3z"/>
		<path fill="#1E1D1B" d="M88.3,225.1c-1.8,0-3.3-0.4-4.6-1.9c-1.2-1.4-1.4-2.7-1.4-4.4v-20.5c0-1.2,0.5-1.8,1.8-1.8
			s1.8,0.7,1.8,1.8v20.5c0,2.1,0.6,2.6,2.3,2.6h6.2c1.7,0,2.3-0.5,2.3-2.6v-20.5c0-1.2,0.5-1.8,1.8-1.8c1.3,0,1.8,0.7,1.8,1.8v20.5
			c0,1.7-0.2,3-1.4,4.4c-1.3,1.4-2.7,1.9-4.6,1.9H88.3z"/>
		<path fill="#1E1D1B" d="M133,217.9c0.7,1,1.3,1.8,1.3,3c0,2.8-2.1,4.2-4.6,4.2h-8.1c-1.4,0-2.6-0.3-3.7-1.2
			c-1-0.8-1.7-2.1-1.7-3.4c0-1.2,0.7-2.2,1.9-2.2c1.1,0,1.7,0.9,1.7,1.9c0,1.1,0.6,1.3,1.6,1.3h8c0.3,0,1.2,0.1,1.2-0.4
			c0-0.3-0.5-0.8-0.7-1.1l-12.6-16.2c-0.8-1-1.2-1.7-1.2-3c0-1.5,0.7-2.7,1.9-3.5c1-0.7,1.9-0.7,3.1-0.7h7.8c1.4,0,2.6,0.3,3.6,1.2
			c1,0.8,1.7,2.2,1.7,3.5c0,1.2-0.6,2.1-1.9,2.1c-1.1,0-1.8-0.7-1.8-1.7c0-1.2-0.6-1.4-1.8-1.4h-7.8c-0.4,0-1.3-0.1-1.3,0.5
			c0,0.3,0.4,0.8,0.6,1L133,217.9z"/>
		<path fill="#1E1D1B" d="M166.3,221.5c1,0,1.8,0.5,1.8,1.8c0,1.3-0.9,1.8-1.8,1.8H150v-28.6h16.3c1,0,1.8,0.5,1.8,1.8
			c0,1.3-0.9,1.8-1.8,1.8h-12.6v8.8h5.4c1,0,1.8,0.5,1.8,1.8c0,1.3-0.9,1.8-1.8,1.8h-5.4v8.8H166.3z"/>
	</g>
	<g>
		<path fill="#DF2227" d="M172.9,254.3c0,1.2-1.9,2.1-4.3,2.1H13.6c-2.3,0-4.3-1-4.3-2.1c0-1.2,1.9-2.1,4.3-2.1h155.1
			C171,252.2,172.9,253.2,172.9,254.3z"/>
	</g>
</g>
</svg>
