<?xml version="1.0" encoding="utf-8"?>
<!-- Generator: Adobe Illustrator 18.1.0, SVG Export Plug-In . SVG Version: 6.00 Build 0)  -->
<svg version="1.1" id="Layer_1" xmlns="http://www.w3.org/2000/svg" xmlns:xlink="http://www.w3.org/1999/xlink" x="0px" y="0px"
	 viewBox="0 0 40.7 42.1" enable-background="new 0 0 40.7 42.1" xml:space="preserve">
<path fill="#6BACDF" d="M37,12.9c-1.1,0.5-2.3,0.8-3.6,1c1.3-0.8,2.3-2,2.8-3.5c-1.2,0.7-2.6,1.2-4,1.5c-1.1-1.2-2.8-2-4.6-2
	c-3.5,0-6.3,2.8-6.3,6.3c0,0.5,0.1,1,0.2,1.4c-5.2-0.3-9.8-2.8-12.9-6.5c-0.5,0.9-0.8,2-0.8,3.1c0,2.2,1.1,4.1,2.8,5.2
	c-1,0-2-0.3-2.8-0.8c0,0,0,0.1,0,0.1c0,3,2.2,5.6,5,6.1c-0.5,0.1-1.1,0.2-1.7,0.2c-0.4,0-0.8,0-1.2-0.1c0.8,2.5,3.1,4.3,5.9,4.4
	c-2.1,1.7-4.8,2.7-7.8,2.7c-0.5,0-1,0-1.5-0.1c2.8,1.8,6.1,2.8,9.6,2.8c11.5,0,17.8-9.5,17.8-17.8c0-0.3,0-0.5,0-0.8
	C35.1,15.3,36.2,14.2,37,12.9z"/>
</svg>
